PathFileType	4	(X/Y/Z)	/home/abdul/Desktop/myosuite/custom_workspace/IK/output/S11_12_3.trc
DataRate	CameraRate	NumFrames	NumMarkers	Units	OrigDataRate	OrigDataStartFrame	OrigNumFrames
200.0	200.0	33	3	mm	200.0	1730	1976
Frame#	Time	V_Shoulder			V_Elbow			V_Wrist		
		X1	Y1	Z1	X2	Y2	Z2	X3	Y3	Z3

1730	8.645	-109.69639781587523	525.9511627618995	277.1609528856969	-318.09085182168747	391.5780485116726	37.48200935510424	-209.88729382560336	156.72265046621175	70.55063408289864
1731	8.65	-109.7812292009106	526.0663030681159	277.06818287993934	-318.06179064796015	391.96819807298164	36.97014178768122	-209.87594179870078	157.04552398168954	69.9202936840612
1732	8.655	-109.86209941515126	526.1875423945592	276.97915044285713	-318.031799445125	392.35106772004997	36.474107947921624	-209.85976365100572	157.36496752096633	69.31014401482186
1733	8.66	-109.93890840142389	526.3149384192124	276.8939326862003	-318.0008356253612	392.7264086865798	35.99439377508794	-209.83885526482737	157.68072373360636	68.72039648465439
1734	8.665	-110.01155970144566	526.4485409917347	276.8126025608906	-317.968855576135	393.09398009302777	35.531467895915306	-209.8133126285227	157.9925378312662	68.15123315744324
1735	8.67	-110.07996060818097	526.5883920271639	276.73522882716037	-317.9358152368392	393.45354920412984	35.08578154520772	-209.7832317957195	158.30015804677333	67.60280736036367
1736	8.675	-110.14402231017573	526.7345254122448	276.6618760343155	-317.90167066468564	393.8048916523662	34.65776851730722	-209.7487088368493	158.6033360785355	67.07524436799852
1737	8.68	-110.20366002755658	526.8869669244253	276.5926045100357	-317.8663785876498	394.1477916275111	34.24784514778914	-209.70983978390692	158.90182751840348	66.56864215840616
1738	8.685	-110.2587931394159	527.0457341635293	276.5274703590747	-317.82989694234976	394.4820420326043	33.85641032456253	-209.66672056938802	159.19539226121765	66.08307223743766
1739	8.69	-110.30934530233617	527.2108364960853	276.4665254711759	-317.792185394835	394.80744460687697	33.48384552737035	-209.61944696038512	159.483794894394	65.61858052720369
1740	8.695	-110.35524455984266	527.3822750122605	276.4098175379741	-317.7532058423583	395.1238100163541	33.13051489449156	-209.5681144888453	159.76680506604205	65.17518831421509
1741	8.7	-110.39642344260814	527.5600424953226	276.35739007860366	-317.71292289430517	395.43095791304404	32.796765315248315	-209.51281837900737	160.04419783025986	64.75289325236866
1742	8.705	-110.43281905926932	527.7441234035215	276.30928247369087	-317.6713043305631	395.7287169638048	32.48292654671901	-209.45365347304275	160.3157539684139	64.35167041562536
1743	8.71	-110.46437317775026	527.9344938642556	276.26553000736254	-317.6283215357241	396.0169248501546	32.189311352854176	-209.3907141559249	160.58126028538652	63.971473394933
1744	8.715	-110.49103229702483	528.1311216803634	276.2261639168608	-317.5839499076309	396.2954282404579	31.916215663989693	-209.3240942805424	160.8405098799588	63.61223543368277
1745	8.72	-110.51274770928529	528.3339663483547	276.1912114493134	-317.53816923889156	396.56408273608065	31.66391875455383	-209.25388709405468	161.0933023886904	63.273870595761224
1746	8.725	-110.52947555252119	528.5429790883695	276.1606959251692	-317.4909640701107	396.8227527932558	31.432683436573356	-209.18018516646433	161.33944420285633	62.95627496006614
1747	8.73	-110.54117685354665	528.7581028856358	276.13463680777403	-317.44232401370607	397.0713116225392	31.222756266402595	-209.10308032234605	161.57874865820787	62.6593278352001
1748	8.735	-110.54781756155016	528.9792725431711	276.1130497785285	-317.3922440473048	397.3096410678635	31.034367761930135	-209.02266357663115	161.81103619753242	62.38289298793875
1749	8.74	-110.54936857227442	529.2064147454556	276.0959468170366	-317.34072477583595	397.53763146730955	30.867732627364294	-208.93902507529694	162.03613450619844	62.12681987899324
1750	8.745	-110.54580574296669	529.4394481327889	276.08333628563196	-317.28777266156203	397.7551814978175	30.72304998256229	-208.85225404175233	162.25387862108124	61.8909448995483
1751	8.75	-110.53710989827307	529.6782833860229	276.07522301763856	-317.2334002214173	397.96219800614324	30.600503593751963	-208.7624387296464	162.46411101347363	61.675092602059664
1752	8.755	-110.52326682727926	529.9228233213518	276.07160840870813	-317.177626191144	398.15859582843757	30.500262102401337	-208.66966638275468	162.6666816467894	61.47907691883618
1753	8.76	-110.50426727193128	530.1729629948278	276.0724905105572	-317.1204756558421	398.34429760087886	30.422479248922066	-208.57402320251902	162.86144801006554	61.3027023620129
1754	8.765	-110.48010690709638	530.4285898162603	276.0778641264144	-317.06198014666927	398.51923356382673	30.367294087849366	-208.47559432373228	163.04827512845833	61.14576519864185
1755	8.77	-110.4507863125507	530.68958367215	276.0877209074825	-317.0021777035487	398.68334136198524	30.33483119112565	-208.3744637987707	163.22703555211012	61.00805459478452
1756	8.775	-110.4163109372048	530.9558170572986	276.1020494497122	-316.94111290385956	398.83656584306533	30.325200836128214	-208.27071459068088	163.39760932493058	60.889353722685044
1757	8.78	-110.37669105589968	531.2271552147382	276.12083539018835	-316.8788368572039	398.97885885742164	30.338499175124138	-208.16442857533303	163.55988393499265	60.789440825332655
1758	8.785	-110.3319417191271	531.5034562836132	276.14406150243013	-316.8154071664524	399.1101790611052	30.374808382909166	-208.05568655275073	163.713754248384	60.70809023298612
1759	8.79	-110.28208269604562	531.7845714546556	276.1717077899188	-316.7508878553869	399.2304917247236	30.434196779491234	-207.9445682676277	163.85912242847877	60.645073326528205
1760	8.795	-110.22713841117941	532.0703451328906	276.20375157717643	-316.68534926336235	399.3397685504289	30.51671892481401	-207.83115243893897	163.99589784270307	60.600159442843854
1761	8.8	-110.16713787520142	532.3606151072157	276.2401675977385	-316.6188679075175	399.43798749927197	30.62241568268091	-207.71551679845436	164.12399695895462	60.57311671776908
1762	8.805	-110.10211461021281	532.6552127265005	276.2809280783831	-316.55152631316315	399.5251326310554	30.7513142512348	-207.5977381378625	164.2433432339076	60.56371286253621
